<?xml version="1.0" encoding="utf-8"?>
<!-- Generator: Adobe Illustrator 26.2.1, SVG Export Plug-In . SVG Version: 6.00 Build 0)  -->
<svg version="1.1" id="Camada_1" xmlns="http://www.w3.org/2000/svg" xmlns:xlink="http://www.w3.org/1999/xlink" x="0px" y="0px"
	 viewBox="0 0 336 304" style="enable-background:new 0 0 336 304;" xml:space="preserve">
<style type="text/css">
	.st0{clip-path:url(#SVGID_00000166650789893820008590000006801157220589029823_);}
	.st1{fill:#E8E8E8;}
	.st2{fill:#4CC9F0;}
	.st3{fill:#FFFFFF;}
	.st4{opacity:0.18;fill:#9B9797;enable-background:new    ;}
	.st5{fill:url(#SVGID_00000021090360267914755740000006300415253273313951_);}
	.st6{opacity:0.25;fill:#9B9797;enable-background:new    ;}
	.st7{opacity:0.24;fill:#9B9797;enable-background:new    ;}
	.st8{fill:url(#SVGID_00000162322666632094577250000004783399273512683698_);}
	.st9{fill:none;stroke:#000000;stroke-width:3;stroke-miterlimit:10;}
	.st10{fill:#F72585;}
	.st11{fill:#480CA8;}
	.st12{fill:#4361EE;}
</style>
<g>
	<g>
		<defs>
			<rect id="SVGID_1_" x="11.5" y="10.4" width="312.9" height="283.1"/>
		</defs>
		<clipPath id="SVGID_00000070837373177859619550000012016880657009337491_">
			<use xlink:href="#SVGID_1_"  style="overflow:visible;"/>
		</clipPath>
		<g style="clip-path:url(#SVGID_00000070837373177859619550000012016880657009337491_);">
			<path class="st1" d="M12.2,243.1c2.7-1.3,3.9-4.8,6.9-5.8c3.1-0.9,6.4,0.9,9.2-1.1c1.2-0.9,2.1-2.4,3.5-2.9
				c1.3-0.5,2.6,0.1,3.9,0.5c1,0.4,2.1,0.7,3.2,0.9c4.3,1.3,8.5,2.6,12.8,3.9c4.8,1.5,9.6,3,14.4,4.5c0.5,0.2,0.7-0.6,0.2-0.7
				c-8.8-2.7-17.6-5.4-26.4-8.1c-2-0.7-4.2-1.6-6.3-1.9c-1.5-0.2-2.7,0.4-3.7,1.4c-1.5,1.4-2.6,2.6-4.7,2.7
				c-1.8,0.1-3.5-0.4-5.3-0.1c-3.6,0.6-4.7,4.6-7.9,6.1C11.4,242.7,11.7,243.4,12.2,243.1z"/>
			<path class="st1" d="M58.5,239.9c1.9,0.5,3.3-1.4,4.9-1.9c2.2-0.7,4.6-0.5,6.6,0.7c0.5,0.3,0.8-0.4,0.4-0.7
				c-1.7-1-3.6-1.4-5.6-1.1c-0.8,0.1-1.7,0.4-2.4,0.7c-1.1,0.5-2.4,1.9-3.7,1.6C58.2,239,58,239.7,58.5,239.9z"/>
			<path class="st1" d="M78.3,238c-1.8-1.4-3.4-2.9-4.9-4.6c-0.7-0.7-1.4-1.6-2-2.3c-0.4-0.5-0.7-0.9-1.1-1.4
				c-0.3-0.4-0.6-0.7-0.7-1c-0.4-0.4-0.4-0.9,0-1.5c0.3,0.1,0.8-0.2,0.6-0.6c-1.6-2.1-2.7-4.4-3.4-7c-0.2,0.2-0.3,0.3-0.5,0.5
				c0.8,0.2,1.5,0.7,2,1.4c0.3,0.4,0.9,0.1,0.7-0.4c-3.8-6.6-7-13.6-9.3-21c-0.2,0.1-0.5,0.3-0.7,0.4c10.8,10.6,15.7,25.3,24.8,37.2
				c0.3,0.4,1,0,0.7-0.4c-9.1-11.9-14.1-26.7-25-37.3c-0.3-0.3-0.7,0-0.7,0.4c2.4,7.4,5.5,14.4,9.4,21c0.2-0.1,0.5-0.3,0.7-0.4
				c-0.6-0.9-1.4-1.5-2.4-1.8c-0.3-0.1-0.6,0.2-0.5,0.5c0.7,2.6,2,4.9,3.5,7.2c0.2-0.2,0.4-0.4,0.6-0.6c-0.7-0.4-1.5,0-1.7,0.8
				c-0.2,1.2,1.2,2.5,1.9,3.4c2.3,2.9,4.9,5.5,7.7,7.7C78.2,238.8,78.8,238.2,78.3,238z"/>
			<path class="st1" d="M75.6,221.8c-4.7-7.1-8.6-14.6-11.5-22.7c-0.1,0.2-0.2,0.3-0.3,0.5c0.8-0.2,1.6,0.1,2.1,0.9
				c0.3,0.5,0.8,0.1,0.7-0.4c-4-8.7-8.1-17.6-7.8-27.3c-0.2,0.1-0.5,0.1-0.7,0.2c6.9,14.2,13.4,28.5,19.7,42.9
				c0.2,0.4,0.8,0.1,0.7-0.3c-1-3.1-2-6.2-3.1-9.3c-0.5-1.5-1-3-1.5-4.6c-0.4-1-1-3.2,0.4-3.7c-0.2-0.1-0.3-0.1-0.5-0.2
				c1.9,3.6,3.7,7.3,5.5,10.9c0.2,0.5,0.9,0.1,0.7-0.4c-2-3.9-3-8.3-2.8-12.7c-0.3,0-0.6,0.1-0.7,0.1c5.4,13.3,11.5,26.3,18.5,38.7
				c0.2,0.5,0.9,0.1,0.7-0.4c-7-12.5-13.1-25.3-18.4-38.6c-0.2-0.4-0.7-0.4-0.7,0.1c-0.2,4.6,0.8,9,2.9,13.1
				c0.2-0.1,0.5-0.3,0.7-0.4c-1.9-3.6-3.7-7.3-5.5-10.9c-0.1-0.1-0.3-0.2-0.5-0.2c-2.6,0.9-0.9,4.7-0.4,6.3c1.3,4,2.7,8.1,4,12.1
				c0.2-0.1,0.5-0.2,0.7-0.3c-6.1-14.4-12.8-28.8-19.7-42.9c-0.2-0.4-0.7-0.2-0.7,0.2c-0.3,9.8,3.8,19,7.9,27.7
				c0.2-0.1,0.5-0.3,0.7-0.4c-0.7-1-1.8-1.5-3-1.3c-0.2,0.1-0.4,0.3-0.3,0.5c2.9,8.1,6.7,15.7,11.5,22.8
				C75.2,222.7,75.9,222.3,75.6,221.8z"/>
			<path class="st1" d="M24.8,271.6c8.9-4.3,18.3-8.7,28.5-7.6c4.8,0.5,9.5,1.9,14.2,2.5c2.4,0.3,4.8,0.5,7.3,0.2
				c2.2-0.3,4.4-1.1,6.6-1.6c2.9-0.7,5.5,0,8.2,0.8c2.2,0.7,4.5,1.1,6.9,0.6c0.5-0.1,0.3-0.8-0.2-0.7c-4.7,1.1-9.1-2.2-13.9-1.6
				c-2.3,0.4-4.6,1.3-6.9,1.7c-2.4,0.4-4.9,0.4-7.5,0.1c-4.8-0.6-9.6-2-14.5-2.5c-4.8-0.6-9.6,0.1-14.2,1.4
				c-5.2,1.6-10.2,3.9-15.1,6.2C23.8,271.1,24.3,271.8,24.8,271.6z"/>
			<path class="st1" d="M77,292.9c3-1.3,6-2.7,8.8-4.3c1.5-0.8,3-1.8,4.5-2.6c1.3-0.8,2.6-2,4.1-2.7c1.6-0.7,4.1,0.6,5.7,1.1
				c1.8,0.6,3.4,1,5.1,1.6c3.5,1.1,7.1,2.1,10.5,3.3c0.5,0.2,0.7-0.6,0.2-0.7c-3.7-1.1-7.5-2.3-11.3-3.4c-1.8-0.6-3.6-1.1-5.4-1.7
				c-1.4-0.5-3.2-1.3-4.7-0.9c-1.4,0.4-2.6,1.5-3.7,2.3c-1.5,0.9-3.1,2-4.6,2.8c-3.1,1.8-6.3,3.4-9.7,4.7
				C76.2,292.4,76.6,293.1,77,292.9z"/>
			<path class="st1" d="M109,293.7c2-0.9,3.9-2,5.9-3c1.8-0.9,3.7-2.1,5.8-2.3c2-0.2,3.7,1.1,5.5,2c1.5,0.7,3.2,1,4.8,1.1
				c3.9,0.2,7.5-1.8,11.3-1.5c3.1,0.2,6.1,2.7,9.2,1.1c0.5-0.2,0.1-0.9-0.4-0.7c-1.9,1-3.9,0-5.8-0.6c-1.6-0.6-3.2-0.7-4.8-0.6
				c-4,0.4-7.6,2-11.6,1.1c-3.4-0.7-6-3.5-9.6-2.5c-1.7,0.5-3.3,1.4-4.7,2.1c-2,0.9-3.9,2-5.9,3C108.3,293.3,108.7,293.9,109,293.7z
				"/>
			<path class="st1" d="M124.1,288.2c-1.6-1.4-3.1-2.9-4.2-4.7c-0.6-0.8-1-1.7-1.5-2.5c-0.2-0.5-0.5-0.8-0.7-1.3
				c-0.2-0.4-0.3-0.7-0.5-1c-0.2-0.4-0.1-0.7,0.3-1.1c0.2-0.1,0.5-0.2,0.7-0.3c-2.8-4.2-4.7-8.9-5.2-13.9c-0.2,0.1-0.5,0.2-0.7,0.3
				c0.5,0.6,0.9,1.2,1.4,1.8c0.3,0.4,0.8-0.1,0.7-0.5c-4.5-8-6.9-17-6.9-26.2c-0.2,0.1-0.5,0.2-0.7,0.3c1.8,1.4,3.1,3.2,3.9,5.2
				c0.2-0.1,0.5-0.2,0.7-0.3c-2-4.3-2.4-9-1.2-13.6c-0.3,0-0.5,0-0.7,0c5.3,15.1,10.5,30.2,15.8,45.3c0.2,0.5,0.9,0.3,0.7-0.2
				c-2.6-7.7-4-15.8-3.9-24c-0.2,0.1-0.5,0.2-0.7,0.3c1.6,1.4,2.5,3.2,2.9,5.3c0.1,0.5,0.7,0.4,0.7-0.1c-0.1-1.6-0.2-3.2-0.3-4.7
				c-0.2,0.1-0.4,0.2-0.6,0.4c1.4,0.8,1.6,3.2,2,4.7c0.5,1.6,0.9,3.1,1.4,4.7c0.9,3.2,2,6.3,2.9,9.5c2,6.3,3.9,12.8,5.8,19.1
				c0.2,0.5,0.9,0.3,0.7-0.2c-2-6.8-4.2-13.7-6.2-20.6c-1-3.4-2-6.7-3.1-10.1c-0.6-1.8-1-3.4-1.6-5.1c-0.4-1-0.7-2-1.7-2.6
				c-0.2-0.2-0.6,0.1-0.6,0.4c0.1,1.6,0.2,3.2,0.3,4.7c0.3,0,0.6-0.1,0.7-0.1c-0.4-2.2-1.5-4.1-3.1-5.6c-0.3-0.2-0.7-0.1-0.7,0.3
				c-0.1,8.3,1.2,16.5,3.9,24.3c0.3-0.1,0.5-0.1,0.7-0.2c-5.3-15.1-10.5-30.2-15.8-45.3c-0.1-0.4-0.7-0.4-0.7,0
				c-1.2,4.7-0.7,9.7,1.3,14.2c0.2,0.4,0.8,0.1,0.7-0.3c-0.8-2.2-2.2-4.1-4.1-5.6c-0.3-0.2-0.7-0.1-0.7,0.3
				c0.1,9.3,2.5,18.4,7.1,26.5c0.2-0.2,0.4-0.3,0.7-0.5c-0.5-0.6-0.9-1.2-1.4-1.8c-0.2-0.3-0.7-0.1-0.7,0.3c0.6,5.1,2.4,10,5.3,14.2
				c0.3,0.4,0.7,0.1,0.7-0.3c-0.1-0.7-1-1-1.6-0.6c-1.1,0.7,0,2.6,0.4,3.4c1.5,3.3,3.6,6.1,6.3,8.5
				C123.9,289,124.5,288.4,124.1,288.2z"/>
			<path class="st1" d="M97.2,230.4c-0.4-4.8,8.5-2,10.9-1.6c4,0.7,8,1.5,12,2.2c8,1.5,16,3,24,4.5c0.5,0.1,0.7-0.7,0.2-0.7
				c-9.2-1.8-18.3-3.4-27.6-5.1c-4.5-0.8-9-1.7-13.5-2.5c-1.6-0.3-3.5-0.7-5,0.2c-1.1,0.7-2,1.8-1.9,3.1
				C96.5,230.9,97.2,230.9,97.2,230.4z"/>
			<path class="st1" d="M138.8,234.7c2.7,0.3,4.3-2.2,6.4-3.5c1.8-1,3.4-0.2,5.1,0.1c2,0.4,4.1,0.5,6.1,0.2c0.5-0.1,0.5-0.8,0-0.7
				c-2.3,0.3-4.7,0.2-6.9-0.4c-1.4-0.4-2.6-0.8-4-0.3c-2.4,0.9-4.1,4.1-6.9,3.8C138.4,233.9,138.4,234.7,138.8,234.7z"/>
			<path class="st1" d="M188,284.2c6.1-2.1,12.4-4.3,18.8-5.9c6.7-1.6,13.4-2.2,20.3-2c6.8,0.2,13.5,0.9,20.2,1.6
				c6.8,0.7,13.6,1.3,20.3,1.9c7.8,0.7,15.6,1.4,23.4,2.1c0.5,0.1,0.5-0.7,0-0.7c-13.9-1.3-27.8-2.6-41.7-3.9
				c-13.4-1.2-26.8-3.1-40.1-0.3c-7.4,1.5-14.3,4-21.4,6.4C187.4,283.6,187.6,284.3,188,284.2z"/>
			<path class="st1" d="M215.2,258.8c4.7-0.9,8.9-2.9,13.3-4.7c4.7-1.9,9.4-3.2,14.3-3.5c5-0.5,10.2-0.2,15.2,0.1
				c5,0.3,10.1,0.7,15.2,1c5.9,0.5,11.8,0.9,17.7,1.4c0.5,0.1,0.5-0.7,0-0.7c-10.4-0.9-21-1.7-31.4-2.4c-10-0.7-19.8-0.9-29.3,2.6
				c-5,1.9-10,4.3-15.3,5.4C214.6,258.2,214.8,258.9,215.2,258.8z"/>
			<path class="st1" d="M274.6,229.2c3.7-2.8,7.5-5.6,11.7-7.6c2-1,4.2-1.9,6.4-2c2.4-0.2,4.9,0.3,7.3,0.6c4.8,0.6,9.8,0.9,14.6,1.3
				c3.3,0.2,7.4,0.7,9.7-2.1c0.3-0.4-0.2-0.9-0.6-0.6c-2.6,3.3-8.1,2-11.6,1.8c-4.9-0.4-9.8-0.8-14.6-1.4c-2-0.3-4.2-0.5-6.2-0.1
				c-2,0.4-4,1.2-5.9,2.1c-4,2.1-7.7,4.7-11.3,7.5C273.9,228.8,274.3,229.5,274.6,229.2z"/>
			<path class="st1" d="M132.8,224.9c3.6-2.8,7.4-5.5,11-8.2c3.5-2.6,6.8-5.4,11.4-5.6c4.3-0.2,8.8,0.3,13,0.7
				c4.7,0.4,9.2,0.9,13.9,1.6c3.9,0.6,8.5,2,12.1,0c0.5-0.2,0.1-0.9-0.4-0.7c-1.9,1-4,1-6.1,0.7c-2.2-0.3-4.5-0.7-6.7-1
				c-4.3-0.6-8.7-1.1-13-1.4c-4.3-0.4-8.8-0.8-13-0.7c-4,0.2-7,2.3-10.1,4.7c-4.2,3.1-8.3,6.2-12.4,9.3
				C132,224.6,132.4,225.3,132.8,224.9z"/>
			<path class="st1" d="M277.8,252.1c0.2-1.7,0.6-3.4,1-5c0.2-0.7,0.5-1.6,0.7-2.3c0.2-0.5,0.7-1.2,1.3-1c0.4,0.1,0.5,1.3,0.6,1.5
				c0.1,0.4,0.7,0.6,0.7,0.1c1.2-3.9,2.6-8.3,6.3-10.5c-0.2-0.1-0.4-0.2-0.6-0.4c0,0.7,0,1.3,0,2c0,0.4,0.6,0.6,0.7,0.2
				c2.3-4.7,4.7-9.8,9.4-12.7c-0.2-0.2-0.4-0.3-0.6-0.5c-2.3,6-5,11.8-8.1,17.5c-0.2,0.4,0.3,0.8,0.7,0.5c1.8-2,3.4-4.1,5.8-5.6
				c-0.2-0.2-0.4-0.4-0.6-0.6c-2.9,6.1-6,11.9-9.4,17.6c-0.3,0.5,0.4,0.8,0.7,0.4c3.4-5.7,6.5-11.5,9.4-17.6
				c0.2-0.3-0.2-0.7-0.6-0.6c-2.3,1.6-4.1,3.6-5.9,5.8c0.2,0.2,0.4,0.3,0.7,0.5c3.1-5.7,5.9-11.6,8.2-17.7c0.1-0.3-0.3-0.6-0.6-0.5
				c-4.7,3-7.4,8-9.7,12.9c0.2,0.1,0.5,0.1,0.7,0.2c0-0.7,0-1.3,0-2c0-0.3-0.4-0.5-0.6-0.4c-3.8,2.4-5.4,6.9-6.6,11
				c0.3,0,0.6,0.1,0.7,0.1c-0.1-1.3-1.3-3.5-2.8-1.9c-0.7,0.8-1,2.2-1.3,3.3c-0.6,1.7-0.8,3.4-1.1,5.2
				C277,252.4,277.7,252.7,277.8,252.1z"/>
			<path class="st1" d="M97.7,208.7c2-1.1,4-2.1,6.2-2.8c2.3-0.7,4.7-0.4,7-0.1c4.7,0.7,9.3,1.2,14,1.9c0.5,0.1,0.5-0.7,0-0.7
				c-4.9-0.7-10-1.4-14.9-2c-2.3-0.3-4.5-0.3-6.7,0.4c-2.1,0.7-4.1,1.7-6,2.7C96.8,208.3,97.2,209,97.7,208.7z"/>
			<path class="st1" d="M254.4,34.3c1.9-1.6,4.5-1.3,6.5-0.3c1.6,0.7,2.8,2.2,4.7,2.3c1.7,0.1,3.1-1.1,4.5-1.9c0.9-0.5,2-0.8,3-0.6
				c1.1,0.2,2.1,0.9,3.3,1.4c3.4,1.5,5.8-0.6,8.8-2.2c0.8-0.5,1.7-0.8,2.7-0.9c1.2-0.1,2.3,0.5,3.4,0.9c1.7,0.7,3,1,4.7,0.3
				c1.8-0.7,3.3-0.6,5,0.1c1.1,0.4,2.2,0.9,3.4,1.2c1.8,0.4,3.7,0.3,5-1c0.4-0.4-0.2-0.9-0.6-0.6c-1.8,1.8-4.4,0.9-6.3,0.2
				c-2-0.7-4.1-1.6-6.2-0.8c-1.3,0.6-2.2,0.8-3.7,0.4c-1-0.4-1.9-0.8-2.9-1.1c-1.5-0.5-3-0.2-4.3,0.5c-1.6,0.8-3,2-4.7,2.7
				c-2.2,0.8-3.9-0.3-6-1.1c-1.5-0.7-2.9-0.7-4.3-0.1c-1.8,0.8-3.5,2.5-5.6,1.8c-1.1-0.4-2-1.3-3-1.9c-0.8-0.5-1.8-0.8-2.7-0.9
				c-1.9-0.4-3.6,0-5,1.2C253.5,34.1,254.1,34.7,254.4,34.3z"/>
			<path class="st1" d="M263.7,51.9c0.5,0,0.5-0.7,0-0.7C263.3,51.1,263.3,51.9,263.7,51.9z"/>
			<path class="st1" d="M268.9,54.7c1.2-2.1,4.1-1.1,5.9-0.4s3.4,1.1,5.2,0.6c1.6-0.6,3-1.6,4.6-2c2.2-0.6,3.4,1.4,5.5,1.8
				c3.2,0.7,6.3-2.8,9.3-1.3c0.8,0.4,1.4,0.9,2.3,0.8c0.9-0.1,1.8-0.5,2.6-0.7c2.4-0.6,5-0.1,7.2,1.1c0.5,0.2,0.8-0.5,0.4-0.7
				c-1.4-0.7-2.9-1.2-4.5-1.4c-0.8-0.1-1.6-0.1-2.4,0.1c-0.9,0.1-1.9,0.6-2.8,0.7c-1.3,0.2-1.8-0.4-2.8-0.8
				c-0.6-0.2-1.1-0.3-1.6-0.3c-1.3,0.1-2.5,0.6-3.7,1c-1.5,0.6-3.2,1.1-4.7,0.4c-1.3-0.7-2.3-1.6-3.9-1.6c-3.2,0-5.4,3.1-8.8,2.1
				c-2.5-0.7-6.5-3.2-8.4,0.2C268,54.7,268.7,55.1,268.9,54.7z"/>
			<path class="st1" d="M243.9,85.4c1.9-1.4,3.9-1.4,6-0.5c1.1,0.6,2.3,1,3.4,0.3c0.7-0.4,1.1-1,1.9-1.3c0.8-0.3,1.8-0.1,2.6,0.1
				c1.5,0.4,2.9,1,4.4,1.1c1.8,0.1,3.4-0.7,5.2-0.8c1.9-0.2,3.2,0.9,4.9,1.2c1.7,0.2,3-1.1,4.7-0.8c2,0.3,4.1,1,6.1,1.5
				c0.5,0.1,0.7-0.7,0.2-0.7c-2.1-0.6-4.4-1.4-6.5-1.6c-1.9-0.2-3.2,1.3-5,0.7c-1.8-0.6-3-1.3-4.8-1c-2,0.3-3.8,1-5.9,0.7
				c-1.6-0.4-3.1-1.1-4.7-1.2c-0.6,0-1.2,0-1.8,0.3c-0.7,0.3-1.1,0.8-1.8,1.3c-1.6,0.9-3.6-1-5.3-1.1c-1.6-0.1-3,0.4-4.3,1.4
				C243,85.2,243.5,85.8,243.9,85.4z"/>
			<path class="st1" d="M96.2,29.3c0.5,0,0.5-0.7,0-0.7C95.6,28.5,95.6,29.3,96.2,29.3z"/>
			<path class="st1" d="M98.4,29.9c0.5-2.3,3.5-0.8,4.7-0.1c1.3,0.8,2.6,1.5,4.2,1.1c1.7-0.5,2.8-2,4.7-2c1.8-0.1,3.4,0.7,5.1,1.2
				c1.4,0.5,2.9,0.7,4.4,0.4c1.8-0.4,3.2-1.6,4.9-2c3.4-0.6,6.6,2.2,10.1,1.1c0.5-0.2,0.3-0.9-0.2-0.7c-3.6,1.1-7.2-2-10.9-0.9
				c-1.9,0.6-3.5,2-5.6,1.9c-2-0.1-3.7-1-5.5-1.5c-1.4-0.4-2.9-0.5-4.3,0.2c-0.8,0.4-1.5,0.9-2.3,1.3c-1.3,0.7-2.4,0.3-3.6-0.4
				c-1.3-0.7-2.4-1.6-4-1.5c-1.1,0.1-2,0.7-2.3,1.8C97.6,30.2,98.3,30.4,98.4,29.9z"/>
			<path class="st1" d="M100.8,180.1c3.1-1.3,6.1,1,9.2,1.1c1.6,0.1,3.2-0.3,4.7-0.7c2-0.4,3.7-0.4,5.6,0.4c1.1,0.5,2.2,0.8,3.4,0.4
				c0.7-0.3,1.2-0.7,1.9-0.9c0.7-0.3,1.5-0.3,2.3-0.3c2.8,0.1,5.5,1,8.1-0.2c0.5-0.2,0.1-0.8-0.4-0.7c-2.8,1.3-6-0.1-8.8,0.2
				c-1.4,0.2-2.3,0.9-3.6,1.4c-1.6,0.5-3.1-0.8-4.7-1.1c-3.4-0.6-6.4,1.3-9.8,0.7c-2.7-0.6-5.4-2.1-8.1-0.9
				C100.1,179.6,100.3,180.3,100.8,180.1z"/>
			<path class="st2" d="M45.1,142.2c2.2,0,4.1-1.9,4.1-4.1s-1.9-4.1-4.1-4.1c-2.2,0-4.1,1.9-4.1,4.1S42.8,142.2,45.1,142.2z"/>
			<path class="st2" d="M282.1,114.3c1.6,0,2.9-1.3,2.9-2.9c0-1.6-1.3-2.9-2.9-2.9s-2.9,1.3-2.9,2.9
				C279.2,113,280.5,114.3,282.1,114.3z"/>
			<path class="st2" d="M256.3,14.8c1.2,0,2.1-0.9,2.1-2.1s-0.9-2.1-2.1-2.1s-2.1,0.9-2.1,2.1S255.2,14.8,256.3,14.8z"/>
			<path class="st2" d="M163.3,197.7c1.5,0,2.6-1.2,2.6-2.6c0-1.5-1.2-2.6-2.6-2.6c-1.5,0-2.6,1.2-2.6,2.6
				C160.6,196.5,161.8,197.7,163.3,197.7z"/>
			<path class="st2" d="M42.1,48.7c1.7,0,3-1.3,3-3s-1.3-3-3-3s-3,1.3-3,3C39,47.4,40.4,48.7,42.1,48.7z"/>
			<path class="st2" d="M146,154.3c0.9,0,1.8-0.7,1.8-1.7s-0.7-1.8-1.8-1.8c-0.9,0-1.8,0.7-1.8,1.8S145.1,154.3,146,154.3z"/>
			<path class="st2" d="M309,168.9c1.5,0,2.6-1.2,2.6-2.6c0-1.5-1.2-2.6-2.6-2.6c-1.5,0-2.6,1.2-2.6,2.6S307.5,168.9,309,168.9z"/>
			<path class="st2" d="M22.4,212.3c1.1,0,2-0.8,2-2c0-1.1-0.8-2-2-2c-1.1,0-2,0.8-2,2C20.5,211.5,21.4,212.3,22.4,212.3z"/>
			<path class="st3" d="M102.5,60.5c-2.2,4.6-4.5,9.1-6.7,13.7c9.3,12.4,18.5,24.8,27.8,37.3c2.4-3.6,4.7-7.4,7.2-11.1
				c5.7-8.8,11-17.6,16.2-26.3c-1.8-4.5-3.5-8.9-5.3-13.4c-1.1-0.6-2.2-1.1-3.4-1.8c-11,0-22,0.1-32.9,0.1
				C104.4,59.4,103.5,60,102.5,60.5z"/>
			<path d="M96.1,74.2c2-4.3,4-8.6,6.1-12.9c0.2-0.5-0.5-0.8-0.7-0.4c-2,4.3-4.1,8.5-6.1,12.9C95.3,74.3,95.9,74.7,96.1,74.2z"/>
			<path d="M95.6,74.7c9,12.4,18.3,24.7,27.8,36.9c0.3,0.4,0.8-0.2,0.6-0.6c-9.4-12.1-18.6-24.3-27.7-36.7
				C96,74,95.4,74.3,95.6,74.7z"/>
			<path d="M102.3,61c1.1-0.6,2.1-1.1,3.3-1.8c0.5-0.2,0.1-0.9-0.4-0.7c-1.1,0.6-2.1,1.1-3.3,1.8C101.5,60.6,101.9,61.3,102.3,61z"
				/>
			<path d="M106.2,59.3c8,0,16.1,0,24.1,0c0.5,0,0.5-0.7,0-0.7c-8,0-16.1,0-24.1,0C105.7,58.6,105.7,59.3,106.2,59.3z"/>
			<path d="M147.3,74c-1.6-4.3-3.3-8.6-5-12.9c-0.2-0.5-0.9-0.3-0.7,0.2c1.8,4.3,3.4,8.5,5,12.9C146.8,74.6,147.5,74.4,147.3,74z"/>
			<path d="M146.5,74.3c-7.5,12.4-15.3,24.6-23.1,36.8c-0.3,0.4,0.4,0.8,0.7,0.4c7.8-12.2,15.6-24.4,23.1-36.8
				C147.4,74.2,146.8,73.9,146.5,74.3z"/>
			<path d="M141.8,60.4c-0.9-0.6-1.8-1.1-2.7-1.8c-0.4-0.3-0.8,0.4-0.4,0.7c0.9,0.6,1.8,1.1,2.7,1.8
				C141.9,61.3,142.3,60.6,141.8,60.4z"/>
			<path d="M138.3,58.5c-6.7,0-13.4,0-20.1,0c-0.5,0-0.5,0.7,0,0.7c6.7,0,13.4,0,20.1,0C138.8,59.2,138.8,58.5,138.3,58.5z"/>
			<path d="M96.5,74.7c4.7-2,9.2-4,13.9-6c0.5-0.2,0.1-0.8-0.4-0.7c-4.7,2-9.2,4-13.9,6C95.6,74.2,96,74.9,96.5,74.7z"/>
			<path d="M102.4,60.8c2.8,0.5,5.6,1,8.4,1.9c0.5,0.1,0.7-0.7,0.2-0.7c-2.8-0.8-5.5-1.4-8.4-1.9C102.2,60,102,60.7,102.4,60.8z"/>
			<path d="M110.6,62.5c0.7,2,1.1,3.8,1.6,5.9c0.1,0.5,0.8,0.3,0.7-0.2c-0.5-2-1-3.9-1.6-5.9C111.2,61.8,110.4,62,110.6,62.5z"/>
			<path d="M111.8,62.6c6.9,0,13.8,0,20.7,0c0.5,0,0.5-0.7,0-0.7c-6.9,0-13.8,0-20.7,0C111.4,61.8,111.4,62.6,111.8,62.6z"/>
			<path d="M132.1,62.7c-0.3,1.4-0.6,2.9-0.7,4.3c-0.1,0.5,0.7,0.7,0.7,0.2c0.3-1.4,0.6-2.9,0.7-4.3C133,62.4,132.2,62.2,132.1,62.7
				z"/>
			<path d="M112.7,68.4c6.1,0,12,0,18.2,0c0.5,0,0.5-0.7,0-0.7c-6.1,0-12.1,0-18.2,0C112.2,67.6,112.2,68.4,112.7,68.4z"/>
			<path d="M133.3,62.6c2.8-0.6,5.6-1.2,8.4-1.8c0.5-0.1,0.3-0.8-0.2-0.7c-2.8,0.6-5.6,1.2-8.4,1.8
				C132.6,61.9,132.8,62.7,133.3,62.6z"/>
			<path d="M132,68.2c2.6,0.4,5,1.9,7.4,3c2.5,1.2,5,2.3,7.5,3.5c0.5,0.2,0.8-0.5,0.4-0.7c-2.7-1.3-5.3-2.5-8-3.7
				c-2.2-1.1-4.7-2.4-7.1-2.9C131.7,67.3,131.5,68.1,132,68.2z"/>
			<path d="M112.9,69.6c3.4,13.8,6.7,27.6,10.1,41.4c0.1,0.5,0.8,0.3,0.7-0.2c-3.4-13.8-6.7-27.6-10.1-41.4
				C113.5,68.8,112.8,69.1,112.9,69.6z"/>
			<path d="M130.9,70.5c-3.2,13.2-5.8,26.7-7.7,40.2c-0.1,0.5,0.7,0.7,0.7,0.2c2-13.5,4.7-26.9,7.7-40.2
				C131.8,70.2,131,70,130.9,70.5z"/>
			<path d="M131.1,44.7c1.1-3,1.8-6.1,1.9-9.2c0-0.5-0.7-0.5-0.7,0c-0.1,3.1-0.7,6.1-1.9,9C130.2,45,130.9,45.2,131.1,44.7z"/>
			<path d="M136.4,45.3c2.5-2.8,5.2-5.3,8.4-7.4c0.4-0.3,0-0.9-0.4-0.7c-3.2,2.1-6.1,4.7-8.6,7.5C135.6,45.1,136.1,45.6,136.4,45.3z
				"/>
			<path d="M141.6,50c3.2-0.9,6.5-1.3,9.8-1c0.5,0,0.5-0.7,0-0.7c-3.4-0.3-6.7,0.1-10.1,1.1C140.8,49.5,141,50.2,141.6,50z"/>
			<path class="st1" d="M87.3,32c0.3,5.1-2.5,10-7.2,12.2c-0.3,0.1-0.2,0.6,0,0.7c4.2,2.5,6.1,7.2,7.3,11.7c0.1,0.5,0.8,0.3,0.7-0.2
				c-1.2-4.7-3.3-9.6-7.6-12.2c0,0.2,0,0.5,0,0.7c4.8-2.3,7.8-7.5,7.5-12.9C88,31.5,87.2,31.5,87.3,32z"/>
			<path class="st1" d="M87.5,32c-0.4,5.3,2.7,10.5,7.5,12.9c0-0.2,0-0.5,0-0.7c-4.4,2.6-6.4,7.5-7.6,12.2c-0.1,0.5,0.7,0.7,0.7,0.2
				c1.1-4.6,3.1-9.2,7.3-11.7c0.2-0.1,0.3-0.6,0-0.7c-4.6-2.2-7.5-7.1-7.2-12.2C88.3,31.5,87.5,31.5,87.5,32z"/>
			<path d="M213,225.1c0.9-0.4,2.1-0.9,3.5-1.8c2.3-1.3,3.5-2,4.3-3.1c0.9-1.4,0.6-2.1,1.8-3.5c0.2-0.2,1-1.1,2.1-1.6
				c1.9-0.8,3.7,0.2,6.6,1.2c2.7,0.9,4.8,1.4,9.1,2.4c1.7,0.4,3.7,0.7,6.7,1.7c0.8,0.3,1.5,0.5,2,0.7c0.1,0.6,0.1,2-0.8,3.2
				c-0.4,0.6-1,1-1.9,1.4c-2,0.9-4.1,0.8-5.8,0.7c-3.6-0.2-2.1,0.4-10.6,0.6c-1.9,0-3.4,0-4.5,0c-1.3,0.9-2.6,1.9-4,2.8
				c-2.2,1.7-4.5,3.3-6.5,4.9C214.5,231.4,213.7,228.3,213,225.1z"/>
			<path class="st3" d="M202.3,192.1c-1.9,0.9-2,1.3-8.9,7.2c-10.8,9.1-11.9,9.6-21.7,18.2c-9.3,8.1-11.1,10.2-12.9,12.9
				c-4.5,6.8-5.4,12.4-5.7,15.2c-0.4,3.7-0.9,8.8,2.3,12.9c2,2.5,4.7,3.6,5.7,3.9c2.7,1,4.9,0.9,8.9,0.7c5.3-0.4,9.3-1.4,11-1.9
				c1.8-0.5,5.9-1.7,10.9-4.2c4.7-2.3,6.9-4.1,13.4-8.5c2.9-2,7.2-4.8,12.7-8.1c0.4-2.6,0.1-4.6-0.2-5.9c-0.7-3-2-5-3.5-7.3
				c-1.2-1.9-2.4-3.3-3.3-4.2c2-1.5,4.5-3.5,7.1-6.4c1.8-1.9,4.6-4.9,6.9-9.2c2.9-5.2,5.8-10.5,3.9-14.2
				C225.8,187.4,212,187.1,202.3,192.1z"/>
			<path class="st4" d="M225.3,194.9c-1.5,3.4-3.9,8.2-7.7,13.3c-5.6,7.5-11.3,11.5-19.8,17.6c-24.2,17.2-30.7,21.1-30,22.8
				c1,2.2,14.6-1.8,16.6-2.3c14.5-4.3,25.1-10.9,31.9-15.6c-1.7-2.6-3.4-5.2-5.1-7.7c2-1.5,4.9-3.8,7.6-7.4c1.5-2,3.7-4.9,5.2-9.4
				C225.5,201.6,225.6,197.7,225.3,194.9z"/>
			<path d="M202.1,192.1c-9.2,6.8-18.2,14-26.7,21.4c-4.1,3.5-8.3,7.2-12.1,11c-3.4,3.4-6.6,7.2-8.6,11.6c-2,4.7-2.6,10-2,15
				c0.4,4.1,2,8.3,5.7,10.4c4,2.2,8.9,2,13.3,1.6c5.4-0.6,10.7-1.9,15.7-3.9c11.2-4.6,20-13,30.5-18.7c0.5-0.2,0.1-0.9-0.4-0.7
				c-8.8,4.7-16.4,11.5-25.2,16.2c-4.7,2.5-9.6,4.3-14.8,5.4c-4.7,1-10.2,1.8-15,0.8c-2.2-0.5-4.5-1.4-6.1-3.1s-2.4-3.8-2.9-6.1
				c-0.9-4.8-0.6-10.3,1.1-15.1c1.7-4.7,4.7-8.7,8.1-12.1c3.5-3.6,7.4-7,11.2-10.2c9.1-8,18.6-15.6,28.4-22.9
				C202.9,192.5,202.6,191.9,202.1,192.1z"/>
			<path d="M176.8,244.9c8.5-3.3,16.1-8.2,23.4-13.5c3.5-2.6,7.1-5.3,10.6-8.1c3.4-2.7,6.7-5.6,9.4-9c0.3-0.4-0.4-0.7-0.7-0.4
				c-2.7,3.5-6.1,6.4-9.7,9.1c-3.4,2.7-6.9,5.4-10.5,8c-7.1,5.2-14.5,10-22.8,13.1C176.2,244.3,176.4,245,176.8,244.9z"/>
			<path d="M210.5,223.2c4.9,4.2,7.6,10.6,6.9,17c-0.1,0.5,0.7,0.5,0.7,0c0.7-6.6-2-13.3-7.2-17.6
				C210.7,222.3,210.1,222.9,210.5,223.2z"/>
			<path d="M217.4,233.1c1.5-0.5,2.8-1.7,4-2.5c1.6-1.1,3.1-2.1,4.7-3.3c0.4-0.3,0-0.9-0.4-0.7c-1.4,1-2.8,2-4.2,3
				c-1.3,0.9-2.7,2.3-4.2,2.8C216.6,232.5,216.8,233.2,217.4,233.1z"/>
			<path d="M213.1,225.4c2.9-1.2,5.6-2.9,8-4.8c0.4-0.4-0.2-0.8-0.6-0.6c-2.3,2-4.8,3.5-7.6,4.7
				C212.4,224.9,212.6,225.7,213.1,225.4z"/>
			<path d="M220.8,220.2c0.5,0,0.5-0.7,0-0.7S220.3,220.2,220.8,220.2z"/>
			<path d="M221.7,219.2c0.5-1,0.9-2.1,1.8-3c1.1-1.1,2.4-0.9,3.8-0.7c2.6,0.6,5.2,1.4,7.8,2.1c2.4,0.7,4.7,1.3,7.3,1.6
				c1.5,0.2,2.7,0.4,3.9,0.9c0.9,0.5,1.8,0.9,2.8,1c0.5,0.1,0.5-0.7,0-0.7c-1.4-0.1-2.5-1.1-3.9-1.6c-1.3-0.5-2.8-0.4-4.2-0.7
				c-3.1-0.5-6-1.4-8.9-2.3c-1.4-0.4-2.9-0.8-4.4-1.1c-1.1-0.2-2.2-0.6-3.3-0.2c-1.9,0.6-2.8,2.6-3.4,4.3
				C220.8,219.5,221.6,219.7,221.7,219.2z"/>
			<path d="M225.8,227.9c5.5-0.8,11-0.9,16.6-1c2,0,4-0.3,5.5-1.5c1.3-1.1,2-2.6,1.7-4.3c-0.1-0.5-0.8-0.3-0.7,0.2
				c0.5,2.3-1.6,4.1-3.7,4.6c-2.1,0.6-4.5,0.3-6.6,0.3c-4.3,0.1-8.6,0.5-12.9,1.1C225.2,227.2,225.4,227.9,225.8,227.9z"/>
			<path d="M245.4,222.8c1.9-1.4,3.8-2.7,5.8-4.1c0.1-0.8,0.6-2.8,2.1-4.4c0.5-0.5,1.6-1.6,3.2-2c1.7-0.4,3,0.5,4.5,1.1
				c2.3,1.1,4.7,1.5,9.2,2.3c3.5,0.7,5.4,1,8,0.8c3.5-0.2,6-1.1,7.5,0.4c0.2,0.2,0.8,0.8,0.7,1.7c-0.1,1.1-1.2,1.8-2.1,2.3
				c-4,2.3-6.3,3-6.3,3c-5.7,1.7-8.6,2.5-11.1,2.7c-2,0.2-4.8,0.2-8.3-0.3c-1,3.4-4,5.7-6.9,5.5
				C247.8,231.6,244.5,227.5,245.4,222.8z"/>
			<path class="st3" d="M208.4,200.1c0.6-1.8,1.6-3.9,3.6-4.7c1.3-0.5,2.5-0.2,2.9-0.1c2.4,0.6,7.4-0.3,17.1-2
				c4.8-0.8,11-2,18.2-3.8c0,1.3,0,3.1-0.1,5c-0.2,4.5-0.7,7.9-0.7,8.7c-0.5,3.2-1.2,8.5-3.5,14.9c-0.6,1.7-1.2,3-1.6,3.9
				c1,0.5,2,1.1,3.2,2c4.4,3.4,5.6,8.4,6.1,10.4c-0.7,0.7-1.6,1.9-2.7,3.1c-4.7,5.1-9.2,7.9-17.7,13.1c-5.2,3.3-9,5.6-15.1,9.1
				c-7.5,4.4-13.4,7.7-20.9,9.9c-1.9,0.6-4.7,1.3-8.5,0.8c-1.8-0.2-5-0.6-8.2-2.8c-4-2.9-5.2-7.1-5.8-8.9c-1.1-4.1-0.7-8,0.4-12.1
				c0.7-2.8,3.4-12.2,12.9-22.8c1.9-2.1,7.3-6.9,17.9-16.4c2.6-2.3,4.7-4.2,6.1-5.4C210.6,201.6,209.5,200.8,208.4,200.1z"/>
			<path class="st4" d="M243.4,192.9c-0.6,2.2-1.6,5.5-3,9.4c-13.1,34.8-42.6,49.8-40.2,53.6c1.8,2.8,18.5-4.1,30.6-11.5
				c9-5.5,15.8-11.3,20.3-15.6c-0.7-1-1.9-2.5-3.5-3.8c-1.6-1.3-3.2-2.1-4.3-2.6c0.8-1.1,1.9-2.9,2.8-5.1c0.6-1.4,1.1-3,1.8-6.1
				c1.1-4.9,1.5-8.9,1.7-10.2c0.3-3,0.6-6.8,0.6-11.4C247.9,190.6,245.7,191.8,243.4,192.9z"/>
			<path d="M249.8,189.5c0,4.8-0.3,9.7-0.9,14.5c-0.7,4.4-1.4,8.8-3,12.9c-1.8,4.5-4.7,7.7-8.3,10.7c-3.6,3.1-7.4,6.1-11,9.2
				c-4.2,3.5-8.5,7-12.7,10.5c-0.4,0.3,0.2,0.8,0.6,0.6c7.7-6.4,15.6-12.9,23.2-19.4c3.4-2.9,6.5-5.9,8.4-10c1.8-4,2.7-8.4,3.4-12.8
				c0.8-5.5,1.3-11,1.2-16.5C250.5,189.1,249.8,189.1,249.8,189.5z"/>
			<path d="M208.8,200.7c1,0.6,2.1,1.1,3.2,1.7c0.5,0.2,0.8-0.5,0.4-0.7c-1-0.6-2.1-1.1-3.2-1.7
				C208.8,199.9,208.4,200.5,208.8,200.7z"/>
			<path d="M212.1,202.1c-9.2,7.5-18.8,14.8-26.4,23.9c-6.6,7.8-12,17.7-12,28.1c0,4.6,1.3,9.4,4.7,12.7c3.4,3.3,8.3,4.6,12.9,4.4
				c5.7-0.3,11.1-2.5,16.1-5c5.4-2.6,10.5-5.8,15.7-8.9c10.6-6.4,22.4-12.4,30.5-22.3c0.3-0.4-0.2-0.9-0.6-0.6
				c-6.7,8.2-16,13.5-25,18.9c-4.9,3-9.8,6.1-14.8,8.8c-4.9,2.8-10.1,5.4-15.5,7c-5.1,1.5-10.8,1.8-15.6-0.7
				c-4.7-2.4-7-7.1-7.5-12.2c-0.9-10.2,4.2-20.5,10.5-28.3c7.8-9.8,18-17.5,27.7-25.3C213,202.4,212.4,201.8,212.1,202.1z"/>
			<path d="M244,222.5c4.8,2.3,8.2,6.9,9,12.2c0.1,0.5,0.8,0.3,0.7-0.2c-0.8-5.5-4.4-10.2-9.3-12.7
				C243.9,221.6,243.5,222.2,244,222.5z"/>
			<path d="M245.5,223.2c1-0.4,1.9-1.1,2.7-1.8c1-0.8,2-1.6,3.1-2.3c0.4-0.3,0-1-0.4-0.7c-0.9,0.7-1.9,1.4-2.8,2.1
				c-0.9,0.7-1.8,1.6-2.9,2C244.8,222.6,245,223.3,245.5,223.2z"/>
			<path d="M251.7,218.7c0.6-1.5,1.1-3,2-4.4c1.1-1.9,2.8-1.7,4.7-1.2c3,0.7,5.8,1.9,8.8,2.5c5.8,1.3,11.7,1.8,17.7,1.3
				c0.5,0,0.5-0.8,0-0.7c-7,0.5-14.1-0.3-20.8-2.1c-1.6-0.5-3.2-1-4.8-1.5c-1.2-0.4-2.7-0.7-4-0.6c-1.1,0.2-1.9,1.1-2.4,2
				c-0.8,1.4-1.4,2.9-2,4.4C250.8,219,251.5,219.1,251.7,218.7z"/>
			<path d="M252.8,231.1c2-1.5,3.8-2.9,5.8-4.4c0.4-0.3,0-0.9-0.4-0.7c-2,1.5-3.8,2.9-5.8,4.4C252.1,230.8,252.5,231.4,252.8,231.1z
				"/>
			<path d="M258.6,226.5c6.3,1.4,12.7,0.4,18.6-2c2.7-1,5.8-2.1,8.1-3.9c1.6-1.2,1.9-3.5-0.3-4.4c-0.5-0.2-0.7,0.6-0.2,0.7
				c1.1,0.5,1.3,1.7,0.5,2.6c-0.4,0.5-0.9,0.7-1.5,1c-1,0.6-2.1,1.1-3.3,1.7c-2.3,1.1-4.7,2-7.1,2.7c-4.8,1.4-9.9,1.9-14.8,0.7
				C258.3,225.7,258.1,226.4,258.6,226.5z"/>
			
				<linearGradient id="SVGID_00000008827387902446031940000010829387867437158054_" gradientUnits="userSpaceOnUse" x1="190.9862" y1="150.4138" x2="250.4214" y2="150.4138">
				<stop  offset="0" style="stop-color:#F72585"/>
				<stop  offset="1" style="stop-color:#480CA8"/>
			</linearGradient>
			<path style="fill:url(#SVGID_00000008827387902446031940000010829387867437158054_);" d="M191.5,115.5c3.9-3.3,9.8-7.2,17.6-9.5
				c3.6-1.1,8.3-2.4,14.3-1.9c9.3,0.8,15.7,5.4,18,7.1c3.5,2.6,6,5.3,7.5,7.3c0.3,18.1,0.7,36,1.1,54.1c0.2,5.6,0.3,11.2,0.5,16.7
				c-3.6,2.2-8.8,4.8-15.3,6.3c-15.2,3.4-27.8-1.1-33-3.4c0-4.6-0.3-11.4-1.7-19.6c-2.2-13.5-5.8-18.9-8-30.5
				C191.4,136.1,190.4,127,191.5,115.5z"/>
			<path class="st3" d="M238,119.9c-1.3,1.4-1.5,3-1.4,8.9c0.1,6.3,0.4,10.6,0.6,15.6c0.2,3.6,0.3,6.5,0.2,10.2
				c-0.1,4.7-0.4,8.7-0.7,11.2c-2.5,2.8-4.7,5-6.4,6.6c-3.7,3.5-7.8,7.5-13.9,11.1c-2.4,1.4-4.5,2.4-5.9,3.1
				c-1.3-0.2-2.7-0.6-4.2-0.9c-3.6-0.9-5.2-1.8-7.9-1.8c-0.8,0-3.4,0-3.7,0.9c-0.2,0.7,1.2,2,2.3,2.6c1,0.6,1.5,0.4,2.6,0.8
				c1.2,0.6,2,1.4,2.4,2c-0.5,0.7-1.2,1.8-2,3.1c-0.9,1.6-1.1,2.2-2.2,4.1c-1.1,2-1.8,3-2.2,3.5c-0.8,0.7-1.3,0.9-4.8,2.5
				c-3.5,1.6-4.2,2-4.2,2.4c0,0.5,0.7,0.6,3.4,1.7c2.2,0.9,2.4,1.1,3.6,1.5c1.4,0.4,2.3,0.7,3.4,0.5c1.7-0.4,2.8-1.6,3.3-2.2
				c0.2,0.2,0.8,0.7,1.6,0.7c0.6,0,1.1-0.2,1.5-0.6c1.6-1.1,2.4-3.3,4-5.7c0.3-0.4,1.3-2,2.9-3.6c1-1.1,2-1.9,2.6-2.4
				c0.9-0.2,2.2-0.6,3.8-0.9c6.2-1.8,10.7-3.9,14.4-5.7c2.2-1,4.7-2.4,9.6-5.2c4.3-2.4,6.5-3.7,8.5-6.3c0.2-0.3,1.3-1.7,2.2-3.8
				c0.3-0.7,1.3-2.9,1.9-7c0.3-1.8,0.3-2.8,0.3-8.3c0.1-7.1,0.1-6.2,0.1-7c0-10.3-0.6-9.4-0.7-19c0-0.9-0.1-3.4-0.8-6.4
				c-0.8-3.4-1.8-4.8-2.3-5.6c-0.7-0.9-1.6-2-3.1-2.7C243.5,116.8,239.9,117.8,238,119.9z"/>
			<path class="st6" d="M246.3,118c0.7,2,1.4,4.9,1.9,8.5c0.7,4.3,0.8,9-0.6,21.4c-1.1,10.3-1.8,15.6-3.3,20.3
				c-2.1,6.9-3.7,11.9-8.4,15.8c-3.1,2.5-6.3,3.7-13,6.1c-4.9,1.7-9.1,2.8-12,3.4c-2,2.8-5.1,6.3-9.5,9.7c-3.4,2.6-6.7,4.4-9.4,5.7
				c0.4,0.3,2,1.3,4.2,1c2.5-0.4,3.9-2.1,4.1-2.5c0.5,0.4,1.2,0.7,2,0.7c1.7-0.3,2.5-2.6,3-3.6c0.9-2.1,2.9-5.2,7.2-8.5
				c2.8-0.7,6.7-1.9,11.2-3.5c6.2-2.4,10.4-4.7,14.9-7.2c7.2-4,8.8-5.7,10-7.3c2.1-2.9,3.1-5.9,3.4-7.2c0.7-2.3,0.8-4.9,1.1-10.1
				c0.2-3.8,0.2-6.7,0.2-8.9c0-3.8-0.1-6.6-0.2-9c-0.1-3.5-0.3-7.7-0.8-12.7c-0.4-3.6-0.7-5-1.5-6.7
				C249.5,120.6,247.6,118.9,246.3,118z"/>
			<path d="M237.7,119.8c-1.3,3.4-1.5,7-1.4,10.5c0.1,3.9,0.3,7.8,0.5,11.7c0.4,8,0.7,15.9-0.4,23.9c-0.1,0.5,0.7,0.5,0.7,0
				c0.9-7.7,0.7-15.6,0.4-23.4c-0.2-3.8-0.4-7.7-0.5-11.6c-0.1-3.7,0-7.5,1.4-11C238.6,119.5,237.8,119.3,237.7,119.8z"/>
			<path d="M237.8,165.3c-2.3,1.3-4.3,3.3-6.1,5.2c-2,2.1-4,4.2-6.1,6.1c-4.6,3.9-9.6,7.2-15.1,9.7c-0.5,0.2-0.1,0.8,0.4,0.7
				c5.2-2.4,10.2-5.5,14.6-9.2c2.2-1.9,4.2-3.8,6.1-6c2-2.1,4-4.4,6.6-5.9C238.7,165.8,238.3,165.1,237.8,165.3z"/>
			<path d="M210.7,186.4c-2.8-0.6-5.7-1.2-8.6-1.9c-1.4-0.3-2.9-0.7-4.3-0.9c-0.9-0.2-1.9-0.2-2.6,0.3c-1.2,0.8-1.2,2.2-0.1,3.2
				c0.8,0.7,1.9,0.9,2.8,1.2c1.6,0.5,2.9,1.1,3.9,2.4c0.3,0.4,1,0,0.7-0.4c-0.9-1.1-2-2-3.4-2.5c-0.9-0.4-2-0.6-2.9-1
				c-0.7-0.4-1.4-0.8-0.9-1.8c0.5-0.8,1.6-0.8,2.3-0.7c2.1,0.3,4.3,0.9,6.4,1.4c2.2,0.5,4.4,0.9,6.6,1.4
				C210.9,187.3,211.1,186.6,210.7,186.4z"/>
			<path d="M201.1,190.8c-1.1,2-2.3,4.1-3.4,6.2c-0.6,1-1,2-1.8,3.1c-0.7,1-1.6,1.5-2.7,2c-2,0.9-4.2,1.8-6.1,2.8
				c-0.8,0.6-1.5,1.4-0.7,2.3c0.9,1.1,2.8,0.7,4,0.5c1.7-0.3,3.4-0.8,4.8-1.6c3.3-1.6,6-4,7.9-7c0.3-0.4-0.4-0.8-0.7-0.4
				c-1.8,2.7-4.1,4.8-6.9,6.3c-1.3,0.7-2.8,1.3-4.3,1.6c-0.8,0.2-1.7,0.4-2.6,0.4c-0.8,0.1-1,0.2-1.4-0.7c-0.5-0.5-0.5-0.7,0.1-0.9
				c0.2-0.1,0.4-0.2,0.6-0.2c1.7-0.7,3.4-1.5,4.9-2.3c1.3-0.6,2.5-1.1,3.4-2.2c1-1.4,1.8-3,2.6-4.5c0.9-1.7,1.9-3.4,2.8-5.1
				C201.9,190.7,201.2,190.4,201.1,190.8z"/>
			<path d="M212.8,196.4c6.9-2,13.6-4.5,19.9-7.7c3.2-1.6,6.2-3.4,9.3-5.2c2.7-1.7,5.6-3.4,7.5-6.1c0.3-0.4-0.4-0.8-0.7-0.4
				c-2,2.7-5.1,4.5-8,6.2c-2.9,1.8-5.9,3.4-8.9,4.9c-6.2,3.1-12.7,5.5-19.4,7.5C212.1,195.9,212.3,196.6,212.8,196.4z"/>
			<path d="M238.1,120.5c2.1-4.2,7.6-3.3,10.3-0.3c3.3,3.6,3.4,8.8,3.7,13.4c0.7,10,0.9,20.1,0.3,30.1c-0.3,4.8-1,10-4.3,13.9
				c-0.3,0.4,0.2,0.9,0.6,0.6c2.9-3.5,3.9-7.9,4.3-12.4c0.6-5.7,0.6-11.4,0.5-17c-0.1-6-0.4-11.9-0.8-17.8
				c-0.4-4.5-1.2-9.4-4.9-12.3c-3.2-2.5-8.4-2.4-10.4,1.5C237.3,120.5,237.9,120.9,238.1,120.5z"/>
			<path d="M189.6,208.2c1.9,0.8,4.2,2.1,6.3,2.1c2,0,3.5-1.8,4.9-3c4-3.7,8-7.5,12-11.1c0.4-0.4-0.2-0.8-0.6-0.6
				c-3.4,3.2-6.7,6.2-10.2,9.4c-1.5,1.4-3.1,3.4-4.9,4.2c-2.2,1-5.2-0.8-7.3-1.7C189.5,207.3,189.1,208,189.6,208.2z"/>
			<path d="M200.1,207.7c0.8,1.6,2.7,0.9,3.7-0.2c1.9-2.2,3.4-4.8,4.9-7.3c0.3-0.4-0.4-0.8-0.7-0.4c-1,1.5-2,3-3,4.5
				c-0.6,0.8-3.1,5.3-4.3,3C200.5,206.9,199.9,207.2,200.1,207.7z"/>
			<path d="M194.1,206.4c0.7,0.4,1.8,0.8,2.6,0.4c0.5-0.2,0.7-0.6,0.8-1c0.4-0.7,0.7-1.2,1.4-1.7c0.4-0.3,0-0.9-0.4-0.7
				c-0.7,0.4-1.1,0.9-1.5,1.6c-0.3,0.5-0.4,1.1-1.1,1.1c-0.5,0.1-1-0.3-1.4-0.5C194.1,205.6,193.7,206.2,194.1,206.4z"/>
			<path class="st3" d="M188.9,59.4c-0.9,1.9-1.8,4.8-2,5.9c-0.4,1.4-1.3,4.8-1.9,9.3c-0.3,2.5-0.6,5.2-0.4,8.8
				c0.1,1.7,0.3,4.4,1.3,7.7c0.7,2.2,1.7,5.5,4.3,8.8c2.3,2.9,4.9,4.7,7.1,5.9c1.3,0,3-0.1,4.7-0.4c3.3-0.7,5.8-1.9,7.5-2.8
				c0.2,1.3,0.6,2.7,0.9,4.1c0.8,3,1.8,5.6,2.8,7.8c1-0.2,2.3-0.5,3.6-1.1c4.3-2,6.3-5.6,7-7.2c-0.4-1.5-0.7-3.1-1-4.7
				c-1-6.2-0.7-11.8-0.1-16.4c0.6,0.2,1.4,0.4,2.5,0.4c2.1-0.1,3.5-1.3,4.3-1.9c0.7-0.6,3.4-3,3.4-6.7c0-0.8-0.1-3-1.6-4.2
				c-1.4-1-3.4-0.7-4.7-0.4c-1.6,0.4-2.8,1-3.5,1.5c0.6-1.8,1.7-6.3,0-11.6c-0.4-1.1-2.8-8.3-9.8-11.5
				C203.7,46.5,192.1,52.8,188.9,59.4z"/>
			<path class="st7" d="M217.9,59.6c0.2,2.4,0.4,5.9,0,10c-1.1,12.5-6.1,21.1-7.4,23.3c-2,3.3-5.3,8.1-10.7,12.8
				c1.6-0.2,3.4-0.6,5.4-1.3c5.4-1.9,9-5.2,11-7.3c0.2,2.9,0.7,6.3,1.8,10.2c0.6,1.6,1.1,3.1,1.7,4.5c1.4-1.8,2.7-3.5,4.1-5.3
				c-0.3-1.7-0.6-3.4-0.7-5.3c-0.6-5.5-0.6-10.6-0.3-15.2c1.1,0,2.8-0.1,4.7-0.7c7.8-3.1,12.2-15.4,8-22.1c-0.2-0.3-1.1-1.8-3-3
				C226.5,56.2,219,59.1,217.9,59.6z"/>
			
				<linearGradient id="SVGID_00000094593440516663428170000006924367867132289416_" gradientUnits="userSpaceOnUse" x1="186.1051" y1="57.9371" x2="246.7893" y2="57.9371">
				<stop  offset="0" style="stop-color:#480CA8"/>
				<stop  offset="1" style="stop-color:#4361EE"/>
			</linearGradient>
			<path style="fill:url(#SVGID_00000094593440516663428170000006924367867132289416_);" d="M186.9,64.5c-0.6-1.8-1.2-5.2-0.5-9.3
				c0.2-1.3,1-5.4,3.9-8.7c4.2-4.7,9.3-3.8,16.1-6.2c4.3-1.5,10.2-4.7,16.1-12.2c-0.6,2.8-1.1,5.6-1.6,8.4c0.9,0.3,4,0.9,7.3-0.7
				c5.3-2.6,5.8-8.8,5.8-9.1c0.7,1.4,1.8,4.7,1.3,8.7c-0.4,2.8-1.4,4.8-2,6.1c0.3,0.4,2,2,3.9,1.8c2.3-0.3,4.5-3.4,3.9-7.5
				c0.6,1.5,1.1,4,1,7.1c-0.2,3.7-1.5,6.5-2.2,8c0.2,0.2,1.5,1.4,3.4,1.1c1.6-0.2,3-1.4,3.5-3.1c-0.1,1.8-0.5,4.2-1.4,7.1
				c-1.4,3.8-2.5,4.2-3.1,6.9c-0.9,4.3,1.4,5.8,0.8,9.7c-0.6,3.3-2.6,5.3-5.3,7.9c-4.8,4.7-10.4,7.3-15.2,8.7
				c0.2-1.4,0.5-2.9,0.7-4.3c0.6,0.4,1.6,0.8,2.9,0.8c2.6-0.1,4.3-2.4,5.1-3.7c1-1.4,2.7-3.8,1.8-6.4c-0.7-2.1-2.7-3-2.9-3.1
				c-2.3-0.9-5.3-0.1-7.3,2.2c-1.1-4.3-2.1-8.5-3.3-12.7c-3.6-2.3-7.3-4.6-11-6.9c-1.8-0.4-6.7-1-12.2,1.4
				C190.7,58.9,187.8,63.1,186.9,64.5z"/>
			<path d="M186.5,64.5c-2.2,8.2-3.5,16.9-1.5,25.2c1.7,6.8,5.9,14.5,12.9,16.8c0.5,0.2,0.7-0.6,0.2-0.7c-7.2-2.2-11.2-10.2-12.6-17
				c-1.8-8-0.4-16.2,1.7-23.9C187.5,64.2,186.7,64,186.5,64.5z"/>
			<path d="M198.5,106.3c11.9-1.2,21.8-9.8,24.6-21.4c0.1-0.5-0.7-0.7-0.7-0.2c-2.7,11.3-12.3,19.7-23.8,20.9
				C198.1,105.6,198.1,106.4,198.5,106.3z"/>
			<path d="M222.5,85.1c5.3,3.3,10.5-3.5,10.8-8.3c0.2-2.5-1-4.5-3.4-5.2c-2.3-0.7-4.8,0-6.5,1.8c-0.4,0.4,0.2,0.9,0.6,0.6
				c1.4-1.5,3.4-2.1,5.4-1.7c1,0.2,2.1,0.8,2.8,1.8c0.7,1,0.6,2.4,0.4,3.5c-0.7,4-5,9.7-9.6,6.9C222.5,84.2,222,84.9,222.5,85.1z"/>
			<path d="M222.4,85c-1,7.1-0.7,14.3,1,21.3c0.1,0.5,0.8,0.3,0.7-0.2c-1.7-6.9-2-14-1-21C223.2,84.8,222.5,84.6,222.4,85z"/>
			<path d="M209.1,102.6c0.8,4.2,2,8.2,3.7,12.1c0.2,0.5,0.8,0.1,0.7-0.4c-1.7-3.8-2.9-7.8-3.6-11.9
				C209.7,102,209.1,102.2,209.1,102.6z"/>
			<path d="M213.4,114.9c4.9-0.8,9.2-4.2,11.1-8.8c0.2-0.5-0.6-0.7-0.7-0.2c-1.8,4.5-5.9,7.5-10.5,8.3
				C212.7,114.2,212.9,114.9,213.4,114.9z"/>
			<path d="M209.7,103.6c1,0.1,1.8-0.7,2.6-1.3c1-0.8,2-1.7,3-2.6c1.8-1.8,3.1-3.7,4-6c0.2-0.5-0.6-0.7-0.7-0.2
				c-0.8,2-2,3.8-3.5,5.3c-0.7,0.7-1.4,1.4-2.1,2c-0.8,0.7-2,2-3.2,2C209.3,102.7,209.3,103.6,209.7,103.6z"/>
			<path d="M209.8,103.2c2.2-1.4,4.2-3.1,6.1-4.8c0.4-0.4-0.2-0.9-0.6-0.6c-1.9,1.8-3.8,3.4-6,4.7
				C209,102.7,209.4,103.4,209.8,103.2z"/>
			<path d="M194.6,65.9c-1.5,6.5-2.2,13.2-2.4,19.9c0,0.4,0.6,0.6,0.7,0.2c1-1.6,2-3.3,3-4.8c0.3-0.4-0.4-0.8-0.7-0.4
				c-1,1.6-2,3.3-3,4.8c0.2,0.1,0.5,0.1,0.7,0.2c0.2-6.6,1-13.2,2.4-19.7C195.5,65.7,194.7,65.5,194.6,65.9z"/>
			<path d="M195.7,95.6c-0.7-1.1-1-2.4-1.1-3.7c-0.1-0.9,0.1-4.7,1.9-3.2c0.9,0.8,0.8,2.5,0.8,3.7c0,0.6,0,1.1-0.1,1.7
				c0,0.4-0.1,0.7-0.2,1.1c-0.7,0.5-1.2,0.5-1.5-0.1c-0.4-0.4-0.9,0.2-0.6,0.6c1.1,1.1,2.5,1.2,2.9-0.6c0.2-1.3,0.2-2.6,0.1-3.8
				c-0.1-1-0.1-2.4-0.8-3.3c-1.1-1.1-2.7-0.1-3.1,1.1c-0.8,2.1,0,4.8,1,6.8C195.2,96.4,195.8,96,195.7,95.6z"/>
			<path d="M201,72.4c0.7,3.6,5.5,3.9,7,0.6c0.2-0.5-0.6-0.7-0.7-0.2c-1.1,2.7-4.8,2.2-5.5-0.6C201.6,71.7,200.9,71.9,201,72.4z"/>
			<path d="M199.5,63.4c1-2.1,3.5-3.3,5.9-2.8c2.4,0.6,4.2,2.3,5.4,4.4c0.3,0.5,0.9,0.1,0.7-0.4c-1.4-2.3-3.5-4.4-6.3-4.8
				c-2.5-0.4-5.2,0.8-6.2,3.2C198.5,63.5,199.3,63.9,199.5,63.4z"/>
			<path d="M184.4,64.4c0.7-1.4,1.9-3,3.7-3c1.7,0,3,1.5,3.8,2.8c0.3,0.4,0.9,0,0.7-0.4c-1-1.6-2.4-3.2-4.5-3.3
				c-2,0-3.5,1.7-4.3,3.4C183.5,64.4,184.2,64.7,184.4,64.4z"/>
			<path d="M189,76c0.5,0,0.8-1.7,0.8-3.8c0-2-0.4-3.8-0.8-3.8s-0.8,1.7-0.8,3.8S188.5,76,189,76z"/>
			<path class="st3" d="M191.3,116.7c-0.1,0.9-0.2,2.2-0.2,3.8c-0.2,5.2,0,9.1,0.1,10.2c0.2,3.4,0.7,7.9,1.8,13.1
				c-1,1.2-2.6,2.9-4.6,5c-3.7,3.9-5.7,6-8.8,8c-3.4,2.3-5.9,3.1-7.2,3.4c-1.6,0.4-3.2,0.7-5,0.4c-3.1-0.7-4.9-3-5.6-3.8
				c-1.7-2.1-2-4.3-2.8-8.4c-0.6-3-0.7-5.3-0.7-9.7c-0.1-2.1-0.2-4.7-0.1-8.1c0.1-3.9,0.3-8.5,0.8-13.6c0.3-2.3,0.7-5.2,1.2-8.4
				c-0.5-0.7-0.9-1.2-1.4-1.9c-0.6-0.7-1-1.3-1.5-2c-1.3,1.1-2.6,2.2-3.9,3.4c-0.4,0.1-0.9,0.4-1.7,0.3c-1.4-0.1-2.1-1.1-2.4-1.4
				c-1.3-1.4-1.1-3.3-1-3.6c1.8-2,3.5-3.8,5.4-5.8c0-1.1,0.2-2.5,0.7-4.1c0.4-1.2,0.7-2.1,1.1-3c0.4-0.7,0.8-1.4,1.4-2.1
				c1-1.4,2.2-2.3,3.1-3.1c-0.7,0.4-0.9,0.4-1,0.3c-0.1-0.2,1.1-1.8,2.8-1.9c0.9-0.1,1.7,0.3,2.2,0.5c0.8,0.4,1.3,0.8,1.7,1.2
				c1.6-1.4,3.2-2.7,4.7-4.1c0.6,0.4,1.1,0.7,1.7,1.1c1.3,0.9,2.5,1.8,3.5,2.7c-0.4,0.5-0.8,1-1.5,1.6c-1,0.9-2,1.4-2.9,1.8
				c0.5,0.2,1.4,0.6,1.8,1.4c0.5,0.8,0.3,1.8,0,2.9c-0.2,0.7-0.4,1.4-0.6,1.8c0.1,1.1,0.2,2.5-0.2,4.2c-0.5,2.7-1.6,4.7-2.4,5.9
				c0,1-0.1,2.6,0,4.5c0.2,7.9,1.4,12.6,2.1,18.4c0.5,3.4,0.8,8.3,0.7,14.5c0.6-0.4,1.4-1,2.4-1.8c2.4-2,4-4.1,6-7.1
				c2-2.9,3.4-5,5.1-7.9C187.3,123.1,189,120.2,191.3,116.7z"/>
			<path class="st7" d="M167.9,93.1c-0.6,1.2-1.1,2.4-1.6,3.6c-1.6,3.7-2.9,7.3-3.9,10.6c-0.2,5.3-0.4,9.8-0.5,13
				c-0.1,4.9,0.2,10.8,0.7,22.5c0.2,4.8,0.5,7.7,2.7,9.9c2.3,2.2,5.7,2.2,7.5,2.2c9.9,0,17.3-8.5,19.4-10.9c-2.8,4.7-5.9,7.7-8,9.5
				c-2.4,2-5.5,4.6-10.4,5.9c-4.1,1.1-6,0.8-6.4,0.7c-3.5-0.8-5.5-3.8-6.1-4.7c-1.7-2.5-2.2-5.1-2.5-10.7c-0.3-5.8,0-7.3,0.1-15.2
				c0.1-7.5-0.2-9.7,0.4-14.9c0.4-3.1,0.7-5.6,1.1-7.3c-1-1-2-2.1-3-3.2c-0.8,0.7-1.8,1.5-2.6,2.2c-0.6,0.5-1.1,0.9-1.8,1.4
				c-0.6,0.1-1.3,0-2-0.3c-2-0.8-3.4-3.4-2.7-4.3c0.4-0.6,1.5-0.1,3-0.1c2.6,0,4.3-1.3,7.7-3.7C161.2,97.9,164,95.9,167.9,93.1z"/>
			<path d="M191,116.4c-6,8.2-10.3,17.6-17.9,24.6c-0.4,0.4,0.2,0.8,0.6,0.6c7.5-7.1,12-16.5,18-24.8
				C191.9,116.4,191.3,116.1,191,116.4z"/>
			<path d="M168.8,161c10.2-0.7,17.5-9.2,23.7-16.5c0.3-0.4-0.2-0.9-0.6-0.6c-6,7.1-13.1,15.6-23.1,16.3
				C168.3,160.3,168.3,161,168.8,161z"/>
			<path d="M164,88.6c0.1,2,1.4,3.8,3.4,4.4c0.5,0.1,0.7-0.7,0.2-0.7c-1.6-0.5-2.7-2-2.8-3.6C164.7,88.1,163.9,88.1,164,88.6z"/>
			<path d="M164.7,88.4c0.3-2.2,4.3-0.7,5.3-0.1c1,0.6,2.1,1.1,2.3,2.3c0.2,0.9-0.1,2-0.4,3c-0.1,0.5,0.7,0.7,0.7,0.2
				c0.4-1.3,0.7-2.8,0.2-4c-0.6-1.3-2-1.9-3.1-2.4c-1.2-0.6-2.5-0.9-3.8-0.8c-0.6,0.1-1.2,0.2-1.7,0.6s-0.4,0.7-0.5,1.3
				C163.9,88.9,164.7,88.9,164.7,88.4z"/>
			<path d="M171.8,93.4c-0.1,2,0.4,3.8-0.1,5.8c-0.5,1.8-1.3,3.4-2.2,5.1c-0.2,0.5,0.5,0.8,0.7,0.4c0.9-1.7,1.8-3.4,2.2-5.3
				c0.5-2,0.1-4,0.1-6.1C172.6,93,171.8,93,171.8,93.4z"/>
			<path d="M169.5,104.4c-0.6,13.6,3.3,26.8,2.7,40.4c0,0.5,0.7,0.5,0.7,0c0.7-13.6-3.3-26.8-2.7-40.4
				C170.3,103.9,169.5,103.9,169.5,104.4z"/>
			<path d="M156.8,104.7c0.7,1.1,1.6,2.1,2.5,3.1c0.4,0.4,0.8-0.2,0.6-0.6c-0.8-0.9-1.7-1.9-2.4-2.9
				C157.2,103.9,156.5,104.2,156.8,104.7z"/>
			<path d="M159.8,107.6c-1.5,8.4-2.2,16.9-2.1,25.3c0,4.2,0.2,8.5,0.7,12.7c0.4,3.5,0.7,7.4,2.6,10.4c1.7,2.9,4.7,5,8.1,4.9
				c0.5,0,0.5-0.8,0-0.7c-4.7,0.1-7.8-4.1-8.9-8.3c-1.2-4.6-1.3-9.6-1.5-14.2c-0.4-10,0.3-20,2-29.8
				C160.6,107.2,159.9,107,159.8,107.6z"/>
			<path d="M155,96c-2.4,2-4.7,4.2-7,6.4c-0.4,0.4,0.2,0.9,0.6,0.6c2.2-2.2,4.6-4.4,7-6.4C155.9,96.2,155.3,95.7,155,96z"/>
			<path d="M147.7,103.1c-0.4,3,1.9,5.5,4.9,5.5c0.5,0,0.5-0.7,0-0.7c-2.6,0-4.5-2.1-4.1-4.7C148.5,102.6,147.8,102.6,147.7,103.1z"
				/>
			<path d="M148.4,102.9c2.7,0.1,4.6,2.5,4,5.1c-0.1,0.5,0.7,0.7,0.7,0.2c0.7-3.2-1.5-6-4.7-6.1C148,102.2,148,102.9,148.4,102.9z"
				/>
			<path d="M153.6,108.1c3-2.7,6-5.3,8.8-8.1c1.3-1.3,2.6-2.5,3.7-3.9c0.7-0.7,2.2-2.2,2.3-3.3c0-0.1-0.1-0.3-0.2-0.4
				c-0.1,0-0.1-0.1-0.1-0.1c-0.2-0.1-0.4-0.1-0.5,0.1l-0.1,0.1c-0.3,0.4,0.2,0.9,0.6,0.6l0.1-0.1c-0.2,0-0.3,0.1-0.5,0.1
				c-0.1-0.2-0.1-0.2-0.2,0c-0.1,0.2-0.3,0.4-0.4,0.6c-0.3,0.4-0.6,0.7-0.9,1.1c-0.6,0.7-1.1,1.3-1.6,1.9c-1.1,1.2-2.3,2.4-3.5,3.5
				c-2.6,2.5-5.3,4.8-8,7.3C152.6,107.9,153.2,108.4,153.6,108.1z"/>
			<path d="M153.8,97.4c0.2-1.2,0.4-2.5,0.6-3.7c0.1-0.9,0.2-2,0.7-2.8c1.2-1.9,2.9-0.6,3.7,0.7c0.4,0.6,0.7,1.1,1.1,1.7
				c0.2,0.3,1.2,1.4,1.1,1.8c0.1-0.1,0.3-0.2,0.4-0.3c-0.1,0-0.1,0-0.1,0c-0.5,0-0.5,0.7,0,0.7c0.1,0,0.1,0,0.1,0
				c0.2,0,0.4-0.1,0.4-0.3c0.2-0.7-0.3-1-0.6-1.6c-0.7-0.9-1.3-2-2-2.9c-0.7-0.9-1.6-1.9-2.9-1.8c-1.2,0.1-2,1.1-2.3,2.1
				c-0.7,1.9-0.7,3.9-1,5.8C153,97.7,153.8,97.9,153.8,97.4z"/>
			<path d="M155.1,94.5c0.7,1.4,1.9,2.8,3.5,2.9c1.4,0.1,2.6-0.7,3-2c0.1-0.5-0.7-0.7-0.7-0.2c-0.4,1.2-1.7,1.7-2.8,1.3
				c-1.1-0.4-1.8-1.3-2.2-2.3C155.5,93.7,154.9,94.1,155.1,94.5z"/>
			<path d="M156,89.5c0.1-1.3,1.6-1.6,2.5-1.3c1,0.4,1.9,1.3,2.5,2c0.6,0.6,1.7,1.4,1.9,2.2c0.2,1.1-1.2,1.9-2.1,2.1
				c-0.5,0.1-0.3,0.8,0.2,0.7c1.1-0.4,2.8-1.3,3-2.7c0.1-0.6-0.3-0.8-0.7-1.2c-0.7-0.7-1.4-1.5-2.1-2.2c-1-1-2.3-2.1-3.8-1.9
				c-1.1,0.2-2,0.9-2.1,2.1C155.2,90,156,90,156,89.5z"/>
			<path d="M157.4,87.6c0.4-0.4,0.6-0.9,0.8-1.4c0.8-1,2.1-0.1,3,0.6c1.7,1.1,3.4,3.3,1.9,5.3c-0.3,0.4,0.4,0.8,0.7,0.4
				c1.6-2.1,0-4.7-1.8-6.1c-0.8-0.7-2.1-1.8-3.3-1.5c-1,0.3-1.2,1.5-1.9,2.1C156.5,87.5,157.1,87.9,157.4,87.6z"/>
			<path d="M160,85.2c0.9-1.1,2-2.2,3.4-1.1c0.9,0.7,1.5,1.8,1.9,2.9c0.2,0.5,0.8,0.3,0.7-0.2c-0.5-1.5-1.4-3.3-3-3.8
				c-1.5-0.7-2.8,0.6-3.7,1.7C159.2,85,159.7,85.7,160,85.2z"/>
			<path d="M165.7,85.3c1.6-1.4,3.2-2.7,4.7-4.1c0.4-0.4-0.2-0.8-0.6-0.6c-1.6,1.4-3.2,2.7-4.7,4.1
				C164.7,85.1,165.4,85.7,165.7,85.3z"/>
			<path d="M171.4,88.7c1.5-1.1,3-2.3,4.4-3.5c0.4-0.4-0.2-0.8-0.6-0.6c-1.3,1.2-2.7,2.4-4.2,3.4C170.6,88.3,171,88.9,171.4,88.7z"
				/>
			<path class="st9" d="M183,86.7c8.6,0,15.6-7,15.6-15.6s-7-15.6-15.6-15.6s-15.6,7-15.6,15.6S174.4,86.7,183,86.7z"/>
			<path d="M173.6,73.1c5.7-3.6,11.5-7.1,17.5-10.3c0.5-0.2,0.1-0.9-0.4-0.7c-6,3.3-11.8,6.7-17.5,10.3
				C172.7,72.7,173.1,73.4,173.6,73.1z"/>
			<path d="M174.1,79.8c4.7-3.4,9.5-6.8,14.3-10c0.4-0.3,0-0.9-0.4-0.7c-4.8,3.3-9.6,6.6-14.3,10C173.4,79.5,173.8,80.1,174.1,79.8z
				"/>
		</g>
	</g>
</g>
<path class="st10" d="M383.7,53.8L383.7,53.8c9,0,16.3-7.3,16.3-16.3v0c0-9-7.3-16.3-16.3-16.3h0c-9,0-16.3,7.3-16.3,16.3v0
	C367.4,46.5,374.7,53.8,383.7,53.8z"/>
<path class="st11" d="M423.6,53.8L423.6,53.8c9,0,16.3-7.3,16.3-16.3v0c0-9-7.3-16.3-16.3-16.3h0c-9,0-16.3,7.3-16.3,16.3v0
	C407.2,46.5,414.5,53.8,423.6,53.8z"/>
<path class="st12" d="M463.4,53.8L463.4,53.8c9,0,16.3-7.3,16.3-16.3v0c0-9-7.3-16.3-16.3-16.3h0c-9,0-16.3,7.3-16.3,16.3v0
	C447.1,46.5,454.4,53.8,463.4,53.8z"/>
<path class="st2" d="M503.2,53.8L503.2,53.8c9,0,16.3-7.3,16.3-16.3v0c0-9-7.3-16.3-16.3-16.3h0c-9,0-16.3,7.3-16.3,16.3v0
	C486.9,46.5,494.2,53.8,503.2,53.8z"/>
</svg>
